<svg id="svg" fill="#000000" stroke="#000000" width="200px" height="200px" version="1.1" viewBox="144 144 512 512" xmlns="http://www.w3.org/2000/svg">
    <g id="IconSvg_bgCarrier" stroke-width="0"></g>
    <g id="IconSvg_tracerCarrier" stroke-linecap="round" stroke-linejoin="round" stroke="#CCCCCC"></g>
     <g id="IconSvg_iconCarrier">
      <path xmlns="http://www.w3.org/2000/svg" d="m532.91 393.15c0 4.1758-3.3789 7.5586-7.5586 7.5586h-241.64l74.938 47.723c3.1328 1.9961 4.0625 6.1602 2.0625 9.2852-1.2852 2.0117-3.4609 3.1133-5.6836 3.1133-1.2344 0-2.4883-0.34375-3.6055-1.0547l-95.707-60.953c-1.9336-1.2344-3.1133-3.375-3.1133-5.6719 0-2.2969 1.1758-4.4375 3.1133-5.6719l95.707-60.949c3.1094-1.9688 7.2891-1.0625 9.2852 2.0625 1.9961 3.1289 1.0742 7.2891-2.0625 9.2852l-74.93 47.715h241.64c4.168 0 7.5547 3.3789 7.5547 7.5586z"></path>

      </g>
      </svg>