<svg id="svg" fill="#000000" stroke="#000000" width="200px" height="200px" version="1.1" viewBox="144 144 512 512" xmlns="http://www.w3.org/2000/svg">
    <g id="IconSvg_bgCarrier" stroke-width="0"></g>
    <g id="IconSvg_tracerCarrier" stroke-linecap="round" stroke-linejoin="round" stroke="#CCCCCC"></g>
     <g id="IconSvg_iconCarrier">
      <path xmlns="http://www.w3.org/2000/svg" d="m363.17 562.49h0.24219c6.9531-0.125 12.488-5.875 12.359-12.828l-5.0391-270.96c-0.125-6.8789-5.7422-12.363-12.59-12.363h-0.24219c-6.9531 0.125-12.488 5.875-12.359 12.828l5.0391 270.96c0.12891 6.875 5.7422 12.363 12.59 12.363zm73.68 0c6.8477 0 12.465-5.4883 12.59-12.363l5.0391-270.96c0.125-6.9531-5.4062-12.699-12.359-12.828h-0.24219c-6.8477 0-12.465 5.4883-12.59 12.363l-5.0391 270.96c-0.125 6.9531 5.4062 12.699 12.359 12.828h0.24219zm99.059-296.14c-6.918-0.21094-12.762 5.2305-12.992 12.184l-10.082 313.47c0 8.5391-6.9336 15.48-15.453 15.48h-194.72c-8.5352 0-15.48-6.9414-15.488-15.891l-10.078-313.07c-0.22266-6.9531-6.0039-12.418-12.992-12.184-6.9531 0.22266-12.41 6.0391-12.188 12.992l10.07 312.66c0 22.43 18.246 40.672 40.672 40.672h194.72c22.41 0 40.641-18.246 40.637-40.27l10.078-313.07c0.22266-6.9414-5.2344-12.754-12.184-12.98zm25.406-50.383h-79.098l-7.9961-38.605c-1.2109-5.8438-6.3633-10.039-12.332-10.039h-123.73c-5.9766 0-11.125 4.1953-12.332 10.039l-7.9961 38.605h-79.148c-6.957 0-12.594 5.6367-12.594 12.594 0 6.957 5.6367 12.594 12.594 12.594l322.64 0.003906c6.957 0 12.594-5.6367 12.594-12.594 0.003906-6.9609-5.6406-12.598-12.594-12.598zm-217.77 0 4.8555-23.453h103.23l4.8555 23.453z"></path>

      </g>
      </svg>