<svg id="svg" fill="#000000" stroke="#000000" width="200px" height="200px" version="1.1" viewBox="144 144 512 512" xmlns="http://www.w3.org/2000/svg">
    <g id="IconSvg_bgCarrier" stroke-width="0"></g>
    <g id="IconSvg_tracerCarrier" stroke-linecap="round" stroke-linejoin="round" stroke="#CCCCCC"></g>
     <g id="IconSvg_iconCarrier">
      <path xmlns="http://www.w3.org/2000/svg" d="m598.5 292.77-89.055-89.062c-2.3633-2.3633-5.5625-3.6875-8.9062-3.6875s-6.543 1.3242-8.9062 3.6875l-53.711 53.711c-0.011719 0.003906-0.019531 0.011719-0.023437 0.019531-0.003907 0.011719-0.015626 0.015625-0.019532 0.023438l-203.93 203.93c-1.7539 1.7539-2.9531 3.9805-3.4414 6.4102l-22.562 111.62c-0.83594 4.1367 0.45313 8.4141 3.4414 11.402 2.3867 2.3867 5.5977 3.6875 8.9062 3.6875 0.83203 0 1.668-0.082031 2.4922-0.25l111.62-22.566c2.4297-0.48828 4.6602-1.6836 6.4102-3.4414l35.625-35.625 222.06-222.05c4.9219-4.918 4.9219-12.891 0-17.809zm-230.96 213.15-26.723-26.723 150.51-150.51 26.723 26.723zm-44.531-44.531-26.723-26.719 150.52-150.51 26.719 26.719zm2.6836 86.375-89.301 18.051 18.047-89.301 24.035-24.035 71.25 71.25zm210.17-210.17-71.25-71.25 35.922-35.922 71.25 71.25z"></path>

      </g>
      </svg>