<svg id="svg" fill="#000000" stroke="#000000" width="200px" height="200px" version="1.1" viewBox="144 144 512 512" xmlns="http://www.w3.org/2000/svg">
    <g id="IconSvg_bgCarrier" stroke-width="0"></g>
    <g id="IconSvg_tracerCarrier" stroke-linecap="round" stroke-linejoin="round" stroke="#CCCCCC"></g>
     <g id="IconSvg_iconCarrier">
      <path xmlns="http://www.w3.org/2000/svg" d="m590.19 615.09h-380.38c-5.5625 0-10.078-4.5156-10.078-10.078v-292.79c0-5.5625 4.5156-10.078 10.078-10.078h87.168c5.5625 0 10.078 4.5156 10.078 10.078s-4.5156 10.078-10.078 10.078h-77.094v272.64h360.22v-272.64h-72.562c-5.5625 0-10.078-4.5156-10.078-10.078s4.5156-10.078 10.078-10.078l82.641 0.003906c5.5625 0 10.078 4.5156 10.078 10.078v292.79c-0.003906 5.5586-4.5156 10.074-10.078 10.074zm-187.93-150.22c-5.5625 0-10.078-4.5156-10.078-10.078v-236.4l-61.676 58.121c-4.0508 3.8125-10.43 3.6289-14.242-0.42187-3.8203-4.0508-3.6328-10.43 0.41797-14.242l78.73-74.191c3.8828-3.6562 9.9414-3.6562 13.824 0l78.699 74.191c4.0508 3.8125 4.2383 10.191 0.41797 14.242-3.8203 4.0508-10.188 4.2305-14.242 0.41797l-61.777-58.234v236.52c0 5.5664-4.5078 10.074-10.074 10.074z"></path>

      </g>
      </svg>