<svg id="svg" fill="#000000" stroke="#000000" width="200px" height="200px" version="1.1" viewBox="144 144 512 512" xmlns="http://www.w3.org/2000/svg">
    <g id="IconSvg_bgCarrier" stroke-width="0"></g>
    <g id="IconSvg_tracerCarrier" stroke-linecap="round" stroke-linejoin="round" stroke="#CCCCCC"></g>
     <g id="IconSvg_iconCarrier">
      <path xmlns="http://www.w3.org/2000/svg" d="m590.19 614.66h-380.38c-5.5625 0-10.078-4.5156-10.078-10.078v-292.79c0-5.5625 4.5156-10.078 10.078-10.078h87.168c5.5625 0 10.078 4.5156 10.078 10.078s-4.5156 10.078-10.078 10.078l-77.094-0.003906v272.64h360.22v-272.64h-72.562c-5.5625 0-10.078-4.5156-10.078-10.078s4.5156-10.078 10.078-10.078l82.641 0.003906c5.5625 0 10.078 4.5156 10.078 10.078v292.79c-0.003906 5.5625-4.5156 10.074-10.078 10.074zm-187.89-149.36c-2.4844 0-4.9688-0.91797-6.9141-2.7422l-78.703-74.188c-4.0508-3.8203-4.2383-10.191-0.41797-14.246 3.8242-4.0469 10.191-4.2305 14.242-0.41797l61.676 58.141v-236.43c0-5.5625 4.5156-10.078 10.078-10.078s10.078 4.5156 10.078 10.078v236.5l61.773-58.215c4.0547-3.8086 10.422-3.6328 14.242 0.42188 3.8203 4.0508 3.6328 10.422-0.41797 14.242l-78.723 74.191c-1.9453 1.8242-4.4297 2.7422-6.9141 2.7422z"></path>

      </g>
      </svg>